<svg width="16" height="17" viewBox="0 0 16 17" fill="none" xmlns="http://www.w3.org/2000/svg">
<path d="M9.77783 0.5H2.66668C1.96008 0.50211 1.28303 0.783741 0.783384 1.28338C0.283741 1.78303 0.00211032 2.46008 0 3.16668V10.2778C0.00211032 10.9844 0.283741 11.6615 0.783384 12.1611C1.28303 12.6608 1.96008 12.9424 2.66668 12.9445H9.77783C10.4844 12.9424 11.1615 12.6608 11.6611 12.1611C12.1608 11.6615 12.4424 10.9844 12.4445 10.2778V3.16668C12.4424 2.46008 12.1608 1.78303 11.6611 1.28338C11.1615 0.783741 10.4844 0.50211 9.77783 0.5ZM8.00005 7.61115H7.11115V8.50005C7.11115 8.7358 7.0175 8.96189 6.8508 9.12859C6.6841 9.29529 6.45801 9.38894 6.22226 9.38894C5.98651 9.38894 5.76042 9.29529 5.59372 9.12859C5.42702 8.96189 5.33336 8.7358 5.33336 8.50005V7.61115H4.44447C4.20872 7.61115 3.98263 7.5175 3.81593 7.3508C3.64923 7.1841 3.55558 6.95801 3.55558 6.72226C3.55558 6.48651 3.64923 6.26042 3.81593 6.09372C3.98263 5.92702 4.20872 5.83336 4.44447 5.83336H5.33336V4.94447C5.33336 4.70872 5.42702 4.48263 5.59372 4.31593C5.76042 4.14923 5.98651 4.05558 6.22226 4.05558C6.45801 4.05558 6.6841 4.14923 6.8508 4.31593C7.0175 4.48263 7.11115 4.70872 7.11115 4.94447V5.83336H8.00005C8.2358 5.83336 8.46189 5.92702 8.62859 6.09372C8.79529 6.26042 8.88894 6.48651 8.88894 6.72226C8.88894 6.95801 8.79529 7.1841 8.62859 7.3508C8.46189 7.5175 8.2358 7.61115 8.00005 7.61115Z" fill="#666666"/>
<path d="M11.5556 16.4999H3.55552C3.31977 16.4999 3.09368 16.4063 2.92698 16.2396C2.76028 16.0729 2.66663 15.8468 2.66663 15.611C2.66663 15.3753 2.76028 15.1492 2.92698 14.9825C3.09368 14.8158 3.31977 14.7221 3.55552 14.7221H11.5556C12.2628 14.7221 12.9411 14.4412 13.4412 13.9411C13.9413 13.441 14.2222 12.7627 14.2222 12.0554V4.0554C14.2222 3.81965 14.3159 3.59356 14.4826 3.42686C14.6493 3.26016 14.8754 3.1665 15.1111 3.1665C15.3469 3.1665 15.573 3.26016 15.7397 3.42686C15.9064 3.59356 16 3.81965 16 4.0554V12.0554C15.9986 13.2338 15.5299 14.3634 14.6967 15.1966C13.8635 16.0298 12.7339 16.4985 11.5556 16.4999Z" fill="#666666"/>
</svg>
