<svg width="29" height="24" viewBox="0 0 29 24" fill="none" xmlns="http://www.w3.org/2000/svg">
<path d="M24.5498 2.78017C22.6696 1.91717 20.6854 1.30175 18.6469 0.949326C18.6284 0.945881 18.6092 0.948361 18.5922 0.956414C18.5752 0.964467 18.5611 0.977684 18.552 0.994186C18.2971 1.44759 18.0147 2.03903 17.817 2.50394C15.588 2.17021 13.3704 2.17021 11.1872 2.50394C10.9894 2.02872 10.6968 1.44759 10.4407 0.994186C10.4312 0.978033 10.4171 0.96511 10.4002 0.957107C10.3833 0.949104 10.3643 0.946392 10.3458 0.949326C8.2746 1.30605 6.29252 1.93091 4.44298 2.78017C4.42689 2.787 4.41331 2.79866 4.40413 2.81354C0.644556 8.43029 -0.385396 13.909 0.119837 19.3198C0.122103 19.3462 0.137 19.3715 0.15756 19.3877C2.63802 21.2093 5.04082 22.3151 7.39894 23.0482C7.41728 23.0537 7.43685 23.0534 7.45503 23.0474C7.47321 23.0415 7.48914 23.0301 7.50067 23.0148C8.05846 22.2531 8.55571 21.4499 8.98204 20.6052C9.00719 20.5557 8.98318 20.497 8.93175 20.4774C8.14303 20.1783 7.39203 19.8135 6.66958 19.3992C6.61243 19.3659 6.60784 19.2841 6.66046 19.245C6.81291 19.1311 6.9627 19.0137 7.10973 18.8929C7.12263 18.8822 7.13824 18.8754 7.1548 18.8732C7.17136 18.8709 7.18822 18.8734 7.20347 18.8802C11.9495 21.0471 17.0876 21.0471 21.7777 18.8802C21.7929 18.8729 21.81 18.8702 21.8268 18.8722C21.8436 18.8742 21.8594 18.881 21.8725 18.8917C22.0197 19.0131 22.1699 19.1309 22.3229 19.245C22.3755 19.2841 22.372 19.3658 22.3149 19.3992C21.5925 19.8215 20.8415 20.1782 20.0516 20.4763C20.0395 20.4809 20.0285 20.4881 20.0193 20.4973C20.0101 20.5065 20.0029 20.5175 19.9983 20.5297C19.9936 20.5419 19.9916 20.5549 19.9924 20.5679C19.9931 20.5809 19.9966 20.5936 20.0025 20.6051C20.438 21.4486 20.9353 22.2518 21.4828 23.0136C21.5057 23.0459 21.5468 23.0597 21.5845 23.0481C23.9541 22.3151 26.3569 21.2092 28.8373 19.3876C28.848 19.3798 28.8569 19.3698 28.8634 19.3583C28.8699 19.3468 28.8739 19.3341 28.8751 19.3209C29.4798 13.0655 27.8623 7.63166 24.5874 2.81467C24.5794 2.79905 24.566 2.78681 24.5498 2.78017ZM9.6909 16.0252C8.26203 16.0252 7.08464 14.7134 7.08464 13.1023C7.08464 11.4913 8.23915 10.1794 9.6909 10.1794C11.154 10.1794 12.32 11.5028 12.2971 13.1023C12.2971 14.7134 11.1425 16.0252 9.6909 16.0252ZM19.327 16.0252C17.8982 16.0252 16.7208 14.7134 16.7208 13.1023C16.7208 11.4913 17.8753 10.1794 19.327 10.1794C20.7901 10.1794 21.9561 11.5028 21.9332 13.1023C21.9332 14.7134 20.7902 16.0252 19.327 16.0252Z" fill="#5865F2"/>
</svg>
