<svg width="17" height="15" viewBox="0 0 17 15" fill="none" xmlns="http://www.w3.org/2000/svg">
<path d="M4.14587 14.625H1.37504C0.939624 14.625 0.583374 14.2688 0.583374 13.8333V5.91667C0.583374 5.48125 0.939624 5.125 1.37504 5.125H4.14587C4.58129 5.125 4.93754 5.48125 4.93754 5.91667V13.8333C4.93754 14.2688 4.58129 14.625 4.14587 14.625ZM9.88546 0.375H7.11462C6.67921 0.375 6.32296 0.73125 6.32296 1.16667V13.8333C6.32296 14.2688 6.67921 14.625 7.11462 14.625H9.88546C10.3209 14.625 10.6771 14.2688 10.6771 13.8333V1.16667C10.6771 0.73125 10.3209 0.375 9.88546 0.375ZM15.625 6.70833H12.8542C12.4188 6.70833 12.0625 7.06458 12.0625 7.5V13.8333C12.0625 14.2688 12.4188 14.625 12.8542 14.625H15.625C16.0605 14.625 16.4167 14.2688 16.4167 13.8333V7.5C16.4167 7.06458 16.0605 6.70833 15.625 6.70833Z" fill="#666666"/>
</svg>
