<svg width="45" height="50" viewBox="0 0 45 50" fill="none" xmlns="http://www.w3.org/2000/svg">
<path d="M9.94149 24.6238L22.3684 12.3173V19.7012H32.3099V29.5464H22.3684V36.9302L9.94149 24.6238ZM-2.67029e-05 13.548C-2.67029e-05 12.6127 0.521904 11.8004 1.31723 11.382L20.9517 0.453888C21.3494 0.158531 21.8465 0.0108528 22.3684 0.0108528C22.8903 0.0108528 23.3874 0.158531 23.7851 0.453888L43.4196 11.382C44.2149 11.8004 44.7368 12.6127 44.7368 13.548V35.6996C44.7368 36.6349 44.2149 37.4471 43.4196 37.8655L23.7851 48.7937C23.3874 49.089 22.8903 49.2367 22.3684 49.2367C21.8465 49.2367 21.3494 49.089 20.9517 48.7937L1.31723 37.8655C0.521904 37.4471 -2.67029e-05 36.6349 -2.67029e-05 35.6996V13.548ZM22.3684 43.9449L39.7661 34.2474V15.0001L22.3684 5.30263L4.97073 15.0001V34.2474L22.3684 43.9449Z" fill="#666666"/>
</svg>
