<svg width="27" height="28" viewBox="0 0 27 28" fill="none" xmlns="http://www.w3.org/2000/svg">
<path d="M23.046 4.45408C20.4961 1.90426 17.106 0.5 13.5 0.5C9.89402 0.5 6.50389 1.90426 3.95402 4.45408C1.40426 7.00389 0 10.394 0 14C0 17.606 1.40426 20.9961 3.95402 23.5459C6.50389 26.0957 9.89402 27.5 13.5 27.5C17.106 27.5 20.4961 26.0957 23.046 23.5459C25.5957 20.9961 27 17.606 27 14C27 10.394 25.5957 7.00389 23.046 4.45408ZM13.5 25.918C9.97371 25.918 6.80078 24.378 4.61679 21.9359C5.97074 18.3465 9.43671 15.793 13.5 15.793C10.8788 15.793 8.75391 13.6681 8.75391 11.0469C8.75391 8.42566 10.8788 6.30078 13.5 6.30078C16.1212 6.30078 18.2461 8.42566 18.2461 11.0469C18.2461 13.6681 16.1212 15.793 13.5 15.793C17.5633 15.793 21.0293 18.3465 22.3832 21.9359C20.1992 24.378 17.0263 25.918 13.5 25.918Z" fill="#666666"/>
</svg>
