<svg width="46" height="50" viewBox="0 0 46 50" fill="none" xmlns="http://www.w3.org/2000/svg">
<path d="M35.5321 24.6235L23.1052 36.93V29.5461H13.1637V19.701H23.1052V12.3171L35.5321 24.6235ZM45.4737 35.6994C45.4737 36.6346 44.9517 37.4469 44.1564 37.8653L24.5219 48.7934C24.1242 49.0888 23.6272 49.2365 23.1052 49.2365C22.5833 49.2365 22.0862 49.0888 21.6886 48.7934L2.05407 37.8653C1.25875 37.4469 0.736816 36.6346 0.736816 35.6994V13.5477C0.736816 12.6124 1.25875 11.8002 2.05407 11.3818L21.6886 0.453653C22.0862 0.158298 22.5833 0.0106201 23.1052 0.0106201C23.6272 0.0106201 24.1242 0.158298 24.5219 0.453653L44.1564 11.3818C44.9517 11.8002 45.4737 12.6124 45.4737 13.5477V35.6994ZM23.1052 5.3024L5.70758 14.9999V34.2472L23.1052 43.9447L40.5029 34.2472V14.9999L23.1052 5.3024Z" fill="#666666"/>
</svg>
