<svg width="29" height="24" viewBox="0 0 29 24" fill="none" xmlns="http://www.w3.org/2000/svg">
<path d="M29 3.00819C27.9216 3.48125 26.7724 3.79481 25.5744 3.94706C26.8069 3.21119 27.7476 2.05481 28.1898 0.661C27.0407 1.34612 25.7719 1.83006 24.4198 2.10013C23.3287 0.938313 21.7736 0.21875 20.0771 0.21875C16.7856 0.21875 14.1357 2.89038 14.1357 6.16556C14.1357 6.63681 14.1756 7.08994 14.2734 7.52131C9.33075 7.28025 4.95719 4.91131 2.01912 1.30263C1.50619 2.19256 1.20531 3.21119 1.20531 4.30775C1.20531 6.36675 2.26562 8.19194 3.84612 9.24862C2.89094 9.2305 1.95387 8.95319 1.16 8.51638V8.58162C1.16 11.4707 3.22081 13.8705 5.92325 14.4233C5.43931 14.5556 4.91187 14.6191 4.3645 14.6191C3.98388 14.6191 3.59962 14.5973 3.23894 14.5176C4.00925 16.872 6.19513 18.6029 8.79425 18.6591C6.7715 20.2414 4.20319 21.1948 1.42281 21.1948C0.93525 21.1948 0.467625 21.1731 0 21.1133C2.63356 22.8116 5.75469 23.7812 9.1205 23.7812C20.0607 23.7812 26.042 14.7188 26.042 6.86337C26.042 6.60056 26.0329 6.34681 26.0203 6.09488C27.2002 5.2575 28.1916 4.21169 29 3.00819Z" fill="#03A9F4"/>
</svg>
