<svg width="21" height="20" viewBox="0 0 21 20" fill="none" xmlns="http://www.w3.org/2000/svg">
<path d="M20.7713 16.32L19.7013 15.5C19.7213 15.33 19.7413 15.17 19.7413 15C19.7413 14.83 19.7313 14.67 19.7013 14.5L20.7613 13.68C20.8513 13.6 20.8813 13.47 20.8213 13.36L19.8213 11.63C19.7613 11.5 19.6313 11.5 19.5013 11.5L18.2713 12C18.0013 11.82 17.7313 11.65 17.4213 11.53L17.2313 10.21C17.2213 10.09 17.1113 10 17.0013 10H15.0013C14.8713 10 14.7613 10.09 14.7413 10.21L14.5513 11.53C14.2513 11.66 13.9613 11.82 13.7013 12L12.4613 11.5C12.3513 11.5 12.2213 11.5 12.1513 11.63L11.1513 13.36C11.0913 13.47 11.1113 13.6 11.2113 13.68L12.2713 14.5C12.2513 14.67 12.2413 14.83 12.2413 15C12.2413 15.17 12.2513 15.33 12.2713 15.5L11.2113 16.32C11.1213 16.4 11.0913 16.53 11.1513 16.64L12.1513 18.37C12.2113 18.5 12.3413 18.5 12.4613 18.5L13.7013 18C13.9613 18.18 14.2413 18.35 14.5513 18.47L14.7413 19.79C14.7613 19.91 14.8613 20 15.0013 20H17.0013C17.1113 20 17.2213 19.91 17.2413 19.79L17.4313 18.47C17.7313 18.34 18.0013 18.18 18.2713 18L19.5013 18.5C19.6313 18.5 19.7613 18.5 19.8313 18.37L20.8313 16.64C20.8913 16.53 20.8613 16.4 20.7713 16.32ZM16.0013 16.5C15.1613 16.5 14.5013 15.83 14.5013 15C14.5013 14.17 15.1713 13.5 16.0013 13.5C16.8313 13.5 17.5013 14.17 17.5013 15C17.5013 15.83 16.8313 16.5 16.0013 16.5ZM1.00132 0C0.781322 0 0.571323 0.08 0.381323 0.22C-0.0486774 0.56 -0.128677 1.19 0.211323 1.62L5.97132 9H6.00132V14.87C5.96132 15.16 6.06132 15.47 6.29132 15.7L8.30132 17.71C8.65132 18.06 9.19132 18.08 9.58132 17.8C9.20132 16.91 9.00132 15.96 9.00132 15C9.00132 13.73 9.35132 12.5 10.0013 11.4V9H10.0313L15.7913 1.62C16.1313 1.19 16.0513 0.56 15.6213 0.22C15.4313 0.08 15.2213 0 15.0013 0H1.00132Z" fill="white"/>
</svg>
