<svg width="15" height="11" viewBox="0 0 15 11" fill="none" xmlns="http://www.w3.org/2000/svg">
<path d="M7.72256 3.43945C7.20754 3.43945 6.71361 3.64404 6.34943 4.00821C5.98526 4.37239 5.78067 4.86631 5.78067 5.38134C5.78067 5.89636 5.98526 6.39028 6.34943 6.75446C6.71361 7.11863 7.20754 7.32323 7.72256 7.32323C8.23758 7.32323 8.73151 7.11863 9.09568 6.75446C9.45986 6.39028 9.66445 5.89636 9.66445 5.38134C9.66445 4.86631 9.45986 4.37239 9.09568 4.00821C8.73151 3.64404 8.23758 3.43945 7.72256 3.43945ZM7.72256 8.61782C6.86419 8.61782 6.04098 8.27683 5.43402 7.66988C4.82706 7.06292 4.48607 6.2397 4.48607 5.38134C4.48607 4.52297 4.82706 3.69976 5.43402 3.0928C6.04098 2.48584 6.86419 2.14485 7.72256 2.14485C8.58093 2.14485 9.40414 2.48584 10.0111 3.0928C10.6181 3.69976 10.959 4.52297 10.959 5.38134C10.959 6.2397 10.6181 7.06292 10.0111 7.66988C9.40414 8.27683 8.58093 8.61782 7.72256 8.61782ZM7.72256 0.526611C4.48607 0.526611 1.72212 2.5397 0.602295 5.38134C1.72212 8.22297 4.48607 10.2361 7.72256 10.2361C10.959 10.2361 13.723 8.22297 14.8428 5.38134C13.723 2.5397 10.959 0.526611 7.72256 0.526611Z" fill="#1A1A1A"/>
</svg>
