<svg width="13" height="12" viewBox="0 0 13 12" fill="none" xmlns="http://www.w3.org/2000/svg">
<path d="M9.54688 0.3125C8.84145 0.3125 8.1947 0.534061 7.62463 0.971042C7.07809 1.38998 6.71422 1.92357 6.5 2.31158C6.28578 1.92355 5.92191 1.38998 5.37537 0.971042C4.8053 0.534061 4.15855 0.3125 3.45312 0.3125C1.48454 0.3125 0 1.90845 0 4.02483C0 6.31125 1.85207 7.87559 4.65585 10.2438C5.13198 10.646 5.67166 11.1018 6.23259 11.588C6.30652 11.6522 6.40148 11.6875 6.5 11.6875C6.59852 11.6875 6.69348 11.6522 6.76741 11.588C7.32839 11.1018 7.86805 10.6459 8.34445 10.2435C11.1479 7.87559 13 6.31125 13 4.02483C13 1.90845 11.5155 0.3125 9.54688 0.3125Z" fill="#E12D2D"/>
</svg>
