<svg width="71" height="68" viewBox="0 0 71 68" fill="none" xmlns="http://www.w3.org/2000/svg">
<path fill-rule="evenodd" clip-rule="evenodd" d="M63.0327 24.7023L70.8809 33.644L63.0327 42.5857L64.1263 54.4222L52.515 57.0597L46.4359 67.288L35.5 62.592L24.5641 67.3201L18.485 57.0918L6.87367 54.4544L7.96726 42.5857L0.119141 33.644L7.96726 24.6701L6.87367 12.8336L18.485 10.2283L24.5641 0L35.5 4.69601L46.4359 0L52.515 10.2283L64.1263 12.8658L63.0327 24.7023ZM35.4524 27.7685H32.5148V36.5814H35.4524V27.7685ZM29.5772 17.4868H38.3901V20.4244H29.5772V17.4868ZM23.7019 35.1126C23.7019 40.7969 28.2993 45.3944 33.9836 45.3944C34.5271 45.3944 35.0412 45.3356 35.5699 45.2622C35.7168 46.2756 36.04 47.2304 36.4953 48.0823C35.6874 48.2439 34.8502 48.332 33.9836 48.332C26.6836 48.332 20.7642 42.4126 20.7642 35.1126C20.7642 27.8126 26.6836 21.8932 33.9836 21.8932C37.0975 21.8932 39.9617 22.9802 42.2384 24.8309L44.3241 22.7158C45.0732 23.3621 45.7342 24.0377 46.3951 24.7868L44.3094 26.8725C46.1161 29.1345 47.203 31.9987 47.203 35.1126V35.6267C46.2629 35.3036 45.2935 35.1126 44.2654 35.1126C44.2654 29.4283 39.6679 24.8309 33.9836 24.8309C28.2993 24.8309 23.7019 29.4283 23.7019 35.1126ZM45.7342 38.0503V42.4567H50.1406V45.3944H45.7342V49.8008H42.7965V45.3944H38.3901V42.4567H42.7965V38.0503H45.7342Z" fill="white" fill-opacity="0.8"/>
</svg>
