<svg width="29" height="24" viewBox="0 0 29 24" fill="none" xmlns="http://www.w3.org/2000/svg">
<path d="M26.4512 0.955078H2.54883C1.14335 0.955078 0 2.09843 0 3.50391V20.4961C0 21.9016 1.14335 23.0449 2.54883 23.0449H26.4512C27.8567 23.0449 29 21.9016 29 20.4961V3.50391C29 2.09843 27.8567 0.955078 26.4512 0.955078ZM11.0449 19.6465C6.9259 19.6465 3.39844 16.2778 3.39844 12C3.39844 7.7835 6.82842 4.35352 11.0449 4.35352C15.2614 4.35352 18.6914 7.7835 18.6914 12C18.6914 16.3107 15.1231 19.6465 11.0449 19.6465ZM24.752 17.9473H21.2402C20.7706 17.9473 20.3906 17.5673 20.3906 17.0977C20.3906 16.628 20.7706 16.248 21.2402 16.248H24.752C25.2216 16.248 25.6016 16.628 25.6016 17.0977C25.6016 17.5673 25.2216 17.9473 24.752 17.9473ZM24.752 14.5488H21.2402C20.7706 14.5488 20.3906 14.1688 20.3906 13.6992C20.3906 13.2296 20.7706 12.8496 21.2402 12.8496H24.752C25.2216 12.8496 25.6016 13.2296 25.6016 13.6992C25.6016 14.1688 25.2216 14.5488 24.752 14.5488ZM24.752 11.1504H21.2402C20.7706 11.1504 20.3906 10.7704 20.3906 10.3008C20.3906 9.83117 20.7706 9.45117 21.2402 9.45117H24.752C25.2216 9.45117 25.6016 9.83117 25.6016 10.3008C25.6016 10.7704 25.2216 11.1504 24.752 11.1504ZM24.752 7.75195H21.2402C20.7706 7.75195 20.3906 7.37195 20.3906 6.90234C20.3906 6.43274 20.7706 6.05273 21.2402 6.05273H24.752C25.2216 6.05273 25.6016 6.43274 25.6016 6.90234C25.6016 7.37195 25.2216 7.75195 24.752 7.75195Z" fill="#666666"/>
<path d="M11.0449 6.05273C7.76594 6.05273 5.09766 8.72102 5.09766 12C5.09766 13.2658 5.50201 14.435 6.17898 15.4004C6.78028 14.5356 7.58418 13.8473 8.52453 13.4092C7.98469 12.8074 7.64648 12.0207 7.64648 11.1504C7.64648 9.27609 9.17063 7.75195 11.0449 7.75195C12.9192 7.75195 14.4434 9.27609 14.4434 11.1504C14.4434 12.0207 14.1052 12.8074 13.5653 13.4092C14.5057 13.8473 15.3096 14.5356 15.9109 15.4004C16.5878 14.435 16.9922 13.2658 16.9922 12C16.9922 8.72102 14.3239 6.05273 11.0449 6.05273Z" fill="#666666"/>
<path d="M11.0452 9.45117C10.1085 9.45117 9.34601 10.2137 9.34601 11.1504C9.34601 12.0871 10.1085 12.8496 11.0452 12.8496C11.9819 12.8496 12.7444 12.0871 12.7444 11.1504C12.7444 10.2137 11.9819 9.45117 11.0452 9.45117ZM11.0452 14.5488C9.51446 14.5488 8.13497 15.356 7.38086 16.648C8.39416 17.4489 9.65662 17.9473 11.0452 17.9473C12.4338 17.9473 13.6963 17.4489 14.7096 16.648C13.9555 15.356 12.576 14.5488 11.0452 14.5488Z" fill="#666666"/>
</svg>
