<svg width="28" height="28" viewBox="0 0 28 28" fill="none" xmlns="http://www.w3.org/2000/svg">
<path d="M4.9 7C4.34305 7 3.8089 6.77875 3.41508 6.38492C3.02125 5.9911 2.8 5.45695 2.8 4.9C2.8 4.34305 3.02125 3.8089 3.41508 3.41508C3.8089 3.02125 4.34305 2.8 4.9 2.8C5.45695 2.8 5.9911 3.02125 6.38492 3.41508C6.77875 3.8089 7 4.34305 7 4.9C7 5.45695 6.77875 5.9911 6.38492 6.38492C5.9911 6.77875 5.45695 7 4.9 7ZM27.174 13.412L14.574 0.812C14.07 0.308 13.37 0 12.6 0H2.8C1.246 0 0 1.246 0 2.8V12.6C0 13.37 0.308 14.07 0.826 14.574L13.412 27.174C13.93 27.678 14.63 28 15.4 28C16.17 28 16.87 27.678 17.374 27.174L27.174 17.374C27.692 16.87 28 16.17 28 15.4C28 14.616 27.678 13.916 27.174 13.412Z" fill="#007536"/>
</svg>
