<svg width="71" height="67" viewBox="0 0 71 67" fill="none" xmlns="http://www.w3.org/2000/svg">
<path fill-rule="evenodd" clip-rule="evenodd" d="M63.0338 24.9619L70.8822 33.6444L63.0338 42.3268L64.1274 53.8201L52.5157 56.3811L46.4364 66.3128L35.5001 61.7529L24.5638 66.344L18.4845 56.4123L6.87269 53.8513L7.96632 42.3268L0.11792 33.6444L7.96632 24.9307L6.87269 13.4374L18.4845 10.9076L24.5638 0.975952L35.5001 5.53579L46.4364 0.975952L52.5157 10.9076L64.1274 13.4686L63.0338 24.9619ZM24.2321 45.6674H46.0315V29.0366H24.2321V45.6674ZM44.4744 21.4771H46.0315C46.8574 21.4771 47.6495 21.7957 48.2335 22.3628C48.8175 22.9299 49.1456 23.699 49.1456 24.5009V45.6674C49.1456 46.4693 48.8175 47.2385 48.2335 47.8055C47.6495 48.3726 46.8574 48.6912 46.0315 48.6912H24.2321C23.4062 48.6912 22.6141 48.3726 22.03 47.8055C21.446 47.2385 21.1179 46.4693 21.1179 45.6674V24.5009C21.1179 22.8379 22.5037 21.4771 24.2321 21.4771H25.7892V18.4534H28.9034V21.4771H41.3602V18.4534H44.4744V21.4771ZM40.5349 32.0604L42.1854 33.663L32.9363 42.6436L27.9847 37.8358L29.6352 36.2332L32.9363 39.4384L40.5349 32.0604Z" fill="white" fill-opacity="0.8"/>
</svg>
