<svg width="71" height="67" viewBox="0 0 71 67" fill="none" xmlns="http://www.w3.org/2000/svg">
<path fill-rule="evenodd" clip-rule="evenodd" d="M63.0338 24.9619L70.8822 33.6444L63.0338 42.3268L64.1274 53.8201L52.5157 56.3811L46.4364 66.3128L35.5001 61.7529L24.5638 66.344L18.4845 56.4123L6.87269 53.8513L7.96632 42.3268L0.11792 33.6444L7.96632 24.9307L6.87269 13.4374L18.4845 10.9076L24.5638 0.975952L35.5001 5.53579L46.4364 0.975952L52.5157 10.9076L64.1274 13.4686L63.0338 24.9619ZM34.6889 38.2121L40.2633 41.6894L38.5816 35.4604L43.7045 31.4086L37.0868 31.0155L34.6889 25.0586L32.291 31.0155L25.6733 31.4086L30.7961 35.4604L29.1145 41.6894L34.6889 38.2121ZM50.2598 31.4086C48.547 31.4086 47.1456 32.7542 47.1456 34.4324C47.1456 35.2343 47.4737 36.0034 48.0578 36.5705C48.6418 37.1376 49.4339 37.4561 50.2598 37.4561V43.5037C50.2598 44.3057 49.9317 45.0748 49.3477 45.6418C48.7637 46.2089 47.9716 46.5275 47.1456 46.5275H22.2321C21.4062 46.5275 20.6141 46.2089 20.03 45.6418C19.446 45.0748 19.1179 44.3057 19.1179 43.5037V37.4561C19.9439 37.4561 20.736 37.1376 21.32 36.5705C21.904 36.0034 22.2321 35.2343 22.2321 34.4324C22.2321 32.7693 20.8463 31.4086 19.1179 31.4086V25.361C19.1179 24.5591 19.446 23.79 20.03 23.2229C20.6141 22.6558 21.4062 22.3372 22.2321 22.3372H47.1456C48.8585 22.3372 50.2598 23.6828 50.2598 25.361V31.4086Z" fill="white" fill-opacity="0.8"/>
</svg>
