<svg width="71" height="68" viewBox="0 0 71 68" fill="none" xmlns="http://www.w3.org/2000/svg">
<path fill-rule="evenodd" clip-rule="evenodd" d="M63.0327 24.7023L70.8809 33.644L63.0327 42.5857L64.1263 54.4222L52.515 57.0597L46.4359 67.288L35.5 62.592L24.5641 67.3201L18.485 57.0918L6.87367 54.4544L7.96726 42.5857L0.119141 33.644L7.96726 24.6701L6.87367 12.8336L18.485 10.2283L24.5641 0L35.5 4.69601L46.4359 0L52.515 10.2283L64.1263 12.8658L63.0327 24.7023ZM18.969 45.4469L24.0712 40.4468V31.0927H18.969V45.4469ZM29.9047 35.0384L32.5749 37.3174V24.2897H27.4727V37.2834L29.9047 35.0384ZM35.9763 39.5964L41.0786 34.4942V17.4868H35.9763V39.5964ZM42.7793 31.0927L45.8576 34.171L35.9763 44.0863L29.9727 39.0181L18.969 49.8008H23.646L30.0748 43.5761L35.9763 48.7123L48.2387 36.5521L51.283 39.5964V31.0927H42.7793Z" fill="white" fill-opacity="0.8"/>
</svg>
