<svg width="71" height="67" viewBox="0 0 71 67" fill="none" xmlns="http://www.w3.org/2000/svg">
<path fill-rule="evenodd" clip-rule="evenodd" d="M63.0338 24.9619L70.8822 33.6444L63.0338 42.3268L64.1274 53.8201L52.5157 56.3811L46.4364 66.3128L35.5001 61.7529L24.5638 66.344L18.4845 56.4123L6.87269 53.8513L7.96632 42.3268L0.11792 33.6444L7.96632 24.9307L6.87269 13.4374L18.4845 10.9076L24.5638 0.975952L35.5001 5.53579L46.4364 0.975952L52.5157 10.9076L64.1274 13.4686L63.0338 24.9619ZM24.0916 51.4663H46.1179V40.7729L38.7758 33.6439L46.1179 26.515V15.8216H24.0916V26.515L31.4337 33.6439L24.0916 40.7729V51.4663ZM35.1047 32.7528L27.7626 25.6239V19.386H42.4468V25.6239L35.1047 32.7528ZM27.7626 47.9018V41.664L35.1047 34.535L42.4468 41.664V47.9018H27.7626ZM31.4337 42.9116V44.3373H38.7758V42.9116L35.1047 39.3471L31.4337 42.9116Z" fill="white" fill-opacity="0.8"/>
</svg>
