<svg width="71" height="68" viewBox="0 0 71 68" fill="none" xmlns="http://www.w3.org/2000/svg">
<path fill-rule="evenodd" clip-rule="evenodd" d="M63.0327 24.7023L70.8809 33.644L63.0327 42.5857L64.1263 54.4222L52.515 57.0597L46.4359 67.288L35.5 62.592L24.5641 67.3201L18.485 57.0918L6.87367 54.4544L7.96726 42.5857L0.119141 33.644L7.96726 24.6701L6.87367 12.8336L18.485 10.2283L24.5641 0L35.5 4.69601L46.4359 0L52.515 10.2283L64.1263 12.8658L63.0327 24.7023ZM34.8709 31.6043L19.4392 47.036C18.8123 47.6629 18.8123 48.6917 19.4392 49.3186C20.0661 49.9455 21.0788 49.9455 21.7057 49.3186L37.1535 33.8709L39.42 36.1374L38.2948 37.2787C37.6518 37.9056 37.6518 38.9344 38.2948 39.5613L39.42 40.6865C40.0469 41.3134 41.0757 41.3134 41.7026 40.6865L50.7847 31.6043C51.4117 30.9774 51.4117 29.9486 50.7847 29.3217L49.6595 28.1804C49.0326 27.5535 48.0038 27.5535 47.3769 28.1804L46.2356 29.3217L43.9691 27.0552C44.596 26.4283 44.596 25.3995 43.9691 24.7726C43.3422 24.1457 42.3295 24.1457 41.7026 24.7726L39.42 22.4739L40.5613 21.3648C41.1882 20.7379 41.1882 19.7252 40.5613 19.0983L39.42 17.957C38.7931 17.3301 37.7804 17.3301 37.1535 17.957L28.0552 27.0552C27.4283 27.6821 27.4283 28.6948 28.0552 29.3217L29.1965 30.463C29.8234 31.0899 30.8361 31.0899 31.463 30.463L32.6204 29.3217L34.8709 31.6043ZM50.1646 45.9201C49.5617 45.3171 48.744 44.9784 47.8913 44.9784H38.2465C37.3939 44.9784 36.5762 45.3171 35.9732 45.9201C35.3703 46.523 35.0316 47.3407 35.0316 48.1933V49.8008H51.1062V48.1933C51.1062 47.3407 50.7675 46.523 50.1646 45.9201Z" fill="white" fill-opacity="0.8"/>
</svg>
